<svg xmlns="http://www.w3.org/2000/svg" version="1.1" id="Layer_1" text-rendering="geometricPrecision" shape-rendering="geometricPrecision" image-rendering="optimizeQuality" x="0" y="0" viewBox="0 0 2500 984.8" style="enable-background:new 0 0 2500 984.8" xml:space="preserve"><style>.st2{fill:#4779af}.st4{fill:#d5d2c5}</style><path d="M164.1 654.9c-18.4-3.7-32.4-6.6-51.7-6.6-55.5 0-77.6 26.4-77.6 73.3v34.2H0v55.5h34.7v168.8h67.7V811.4h49.4l4.6-55.5h-54v-26.8c0-15.1 1.4-24.4 23-24.4 8 0 20.7 1.4 30.1 3.3l8.6-53.1zM368 980.2V834c0-63.4-17.4-87.5-96.8-87.5-26.4 0-60.7 4.8-82.3 11.3l9 50.8c21.6-4.2 41.8-6.7 62-6.7 36.2 0 40.4 8.1 40.4 31.5v17.4h-49.4c-47 0-68.1 18.4-68.1 64.5 0 39 17.4 69.5 59.7 69.5 15.4 0 39-4.6 65.2-19.3l4.8 14.7H368zm-67.7-56c-10.3 4.8-20.2 8-34.4 8-13.1 0-18.3-5.1-18.3-17.9 0-12.6 5.7-16.3 20.2-16.3h32.4v26.2zM478 838.7c0-23.4 9.8-34.2 37.1-34.2 13.3 0 32.9 2.3 47.1 5.7l8.4-56.5c-23-5.1-39.5-7.1-55.5-7.1-74.2 0-104.7 27.8-104.7 93.2v52.1c0 65.4 30.5 93 104.7 93 16 0 32.4-1.8 55.5-7.1l-8.4-56.4c-16.5 3.7-29.7 5.7-47.1 5.7-27.3 0-37.1-10.8-37.1-34.4v-54zm313.9 50.8v-48c0-49.8-16.5-95-92.6-95s-98.2 42.3-98.2 91.7v53.5c0 56.4 28.2 93 102.4 93 31.9 0 65.4-7.1 85.9-14.5l-9.8-50.7c-20.2 6-48.5 9.8-69.6 9.8-31 0-41.3-7.1-41.3-33.3v-6.6h123.2zM728 838.7h-59.2v-9.8c0-16.1 7.5-29.2 31-29.2 23.4 0 28.2 13.1 28.2 29.2v9.8zm316.3 49.8v-59.2c0-51.2-19.7-82.7-70.5-82.7-24.8 0-46.4 5.7-64.8 12.7V648.4l-67.7 9.4v319.6c31.5 5.1 68.6 7.5 93 7.5 94.5-.1 110-41.9 110-96.4zm-135.4-70.4c12.7-6.7 28.7-12.7 43.2-12.7 17.9 0 24.4 9.4 24.4 24.4V889c0 21.6-6 37.2-39.9 37.2-9.4 0-17.9 0-27.8-1V818.1zm276.4 166.7c81.3 0 103.3-45.5 103.3-92.5v-53.1c0-47-22-92.6-103.3-92.6s-103.4 45.7-103.4 92.6v53.1c-.1 47 22.1 92.5 103.4 92.5zm0-56.8c-24.4 0-35.8-12.2-35.8-33.8v-56.9c0-21.6 11.3-33.8 35.8-33.8 24.4 0 35.6 12.2 35.6 33.8v56.9c0 21.5-11.2 33.8-35.6 33.8zm244.3 56.8c81.3 0 103.4-45.5 103.4-92.5v-53.1c0-47-22.1-92.6-103.4-92.6-81.3 0-103.3 45.7-103.3 92.6v53.1c0 47 22 92.5 103.3 92.5zm0-56.8c-24.4 0-35.6-12.2-35.6-33.8v-56.9c0-21.6 11.2-33.8 35.6-33.8 24.4 0 35.8 12.2 35.8 33.8v56.9c0 21.5-11.3 33.8-35.8 33.8zm220.4 52.2V648.4l-67.7 9.4v322.4h67.7zm9-115.2 61 115.2h72.4L1729.5 865l60.1-113.7h-72.3L1659 865z" style="fill:#487db5"/><path d="M2086.3 980.6h24.4l-98-281.7h-36.8l-98.2 281.7h24.6l26.2-74h131.1l26.7 74zm-92.2-267.3 58 171.6h-115.9l57.9-171.6zM2154 927.7c0 37.3 18.1 57.1 58.3 57.1 22.9 0 48.6-8 69.5-23.7l1.2 19.4h22.5V687.1l-24.6 3.3v86.7c-23.7-4.6-41.8-6.7-63.4-6.7-46.6 0-63.4 25.7-63.4 63.4v93.9zm126.9 8.9c-19.4 15.7-41.4 26.2-66.8 26.2-27.9 0-35.6-11.3-35.6-35.1v-93.8c0-27.9 11.1-41.4 38.1-41.4 19.9 0 41.9 2.4 64.3 7.1v137zm219.1-8c0-38.5-3.3-48.3-63.9-63.4-38-9.8-39.8-12.7-39.8-41 0-22.4 5.1-31.7 41-31.7 17 0 41 2.4 57.5 5.9l2.6-20.8c-16.1-4.6-39.4-7.1-58.4-7.1-50.7 0-67.2 18.5-67.2 52.8 0 37.7 4.2 50.4 55.8 62.7 47 10.9 47.7 14 47.7 43.6 0 26.1-7.6 33.3-45.7 33.3-15.2 0-36.8-3-54.6-8.4l-4.2 19.8c15.3 6.3 39.8 10.6 60.5 10.6 55.2-.1 68.7-19.1 68.7-56.3z" style="fill:#828282"/><path class="st2" d="M1206.2 428.4c-3.5-6.9-10.9-23.4-14.6-31.7-4.9 0-9.7-.1-14.5-.1h-3.1c.4 3 1.4 10.8 2.8 21.4l4.9 16.4s2.1 7.7 7.6 7.7c.3 0 .6 0 .9-.1 3.8-.9 7.7-1.4 11.2-2.7 5-1.9 7.2-6.8 4.8-10.9zM982.4 164.1c-4.9 0-8.5 1.5-11.9 4.9-14.7 14.9-29.5 29.7-44.5 44.3-3.2 3.1-4.4 6.4-4.4 10.9.1 33.8.1 67.7 0 101.5 0 4.9 1.7 8.5 4.9 12 12.2 13.4 24.1 27.1 36.3 40.5 3.6 4 6.8 8.2 13.4 8.2 58.7.2 117.4.6 176.1 1V164.2c-18.1 0-36.2.1-54.3.1-38.5 0-77-.1-115.6-.2z"/><path d="M1543.9 537c0 .6-.1 1.2-.2 1.8 6.2 0 12.3.1 18.5.1h13.6c7.2 0 9.4-2.3 9.4-9.6V24.1c0-7.9-3.1-10.8-10.5-10.8h-1.5c-4.9.2-9.8.3-14.8.3-4.9 0-9.9-.1-14.8-.2.1.5.1 1 .1 1.5V537z" style="fill:#fff"/><path class="st4" d="M1168 419.8c-1.8-13.9-3-23.1-3-23.3h-141.1s77.2 165.2 77.3 165.5c2 6.6 7.9 9 13.4 10.9 8.2 2.8 16.5 4 24.8 4 9.2 0 18.4-1.4 27.5-3.5 16.1-3.7 16.9-18.8 16.7-22.5-.7-14.4-10.5-91.6-15.6-131.1zM1530.8 20.8c-.2.6-.3 1.1-.5 1.7-.6 2.1-1 4.2-1.8 6.2-.9 2.4-1.8 4.7-2.7 7-12.7 30.1-35 52.3-62.1 70-37 24.2-78.5 37-121.5 45.6-39 7.7-78.5 10.1-118.1 11.6-17.9.7-35.9 1-53.8 1.2h-9V387.4h9c7 .1 14 .1 21 .2 2 0 4.1 0 6.1.1 14.4.1 28.9.4 43.3.8 18.7.6 37.4 1.9 56.1 3.4 36.2 3 71.9 8.9 106.8 19.8 32 10 62.2 23 87.9 45.2 15.3 13.3 27.3 28.3 34.4 46.1 1.8 4.7 3.4 9.5 4.5 14.5.9 4 1.6 8.2 2 12.5.3 3.3 1 5.5 2.5 6.8v-522c-1.9 1.2-3.2 3.1-4.1 6z"/><path d="M1594.2 24c0-6.4-1.7-11.2-5.1-14.7-3.4-3.4-8.1-5.1-14.4-5.1h-1.9c-4.5.2-9.2.3-14.3.3-4.7 0-9.8-.1-16-.3h-1c-4.6 0-8.4 1-11.5 3-3.7 2.4-6.3 6-7.8 10.9-.4 1.2-.7 2.4-1 3.6-.4 1.4-.7 2.8-1.1 3.9-10.1 28.4-30.2 52.2-61.3 72.5-31 20.3-68.7 34.4-118.3 44.3-36.5 7.3-73.1 9.8-116.7 11.5-18.6.7-39.1 1.1-62.5 1.2h-8.1c-17.6 0-35.7.1-55.2.1-39.7 0-79-.1-115.6-.2h-.1c-7.2 0-13.2 2.5-18.3 7.6-14.7 14.9-29.7 29.8-44.4 44.2-4.8 4.7-7.1 10.4-7.1 17.3.1 35 .1 69.1 0 101.4 0 6.9 2.3 12.7 7.2 18.1 6.5 7.1 13.1 14.5 19.4 21.6 5.5 6.2 11.2 12.6 16.9 18.9.2.3.5.6.7.8 3.7 4.1 9.2 10.3 19.3 10.3 12.9 0 25.8.1 38.7.2-.2 1.6.1 3.2.8 4.7 61.7 132.1 74.2 158.9 77 164.8 3.6 11.1 14 14.6 19 16.3 8.7 3 17.8 4.4 27.7 4.4 9 0 18.6-1.2 29.5-3.8 19.7-4.6 24.2-22.1 23.6-31.8-.6-11.6-6.8-61.9-12-102.2 2.4 1.8 5.3 2.8 8.6 2.8.7 0 1.5-.1 2.2-.2.2 0 .5-.1.7-.1 1-.2 2.1-.5 3.2-.7 2.8-.6 5.9-1.2 9.1-2.4 5-1.9 8.9-5.7 10.6-10.5 1.5-4.3 1.1-9.1-1.1-13.1-3-5.8-8.8-18.6-12.6-27.3 13 .1 26.1.4 39 .8 16.4.5 34.1 1.6 55.6 3.4 39.1 3.2 73.4 9.6 104.8 19.4 37.4 11.7 63.5 25.1 84.7 43.4 11.2 9.7 19.7 19.6 25.9 30.3 6.7 11.5 10.6 23.6 12 37 .4 3.9 1.4 8.9 5.4 12.6 4 3.6 9 4.1 12.9 4.1 7.5 0 14.2.1 20.4.1h13.7c12.2-.1 18.3-6.3 18.3-18.6V224.3c.5-66.7.5-133.5.5-200.3zm-32 514.9c-6.2 0-12.3 0-18.5-.1.1-.6.2-1.2.2-1.8V14.8c0-.5-.1-1-.1-1.5 4.9.1 9.8.2 14.8.2 4.9 0 9.8-.1 14.8-.3h1.5c7.3 0 10.5 2.9 10.5 10.8V529.2c0 7.2-2.2 9.5-9.4 9.6-4.7 0-9.3.1-13.8.1zm-360.7-99.6c-3.6 1.3-7.5 1.8-11.2 2.7-.3 0-.6.1-.9.1-5.5 0-7.6-7.7-7.6-7.7l-4.9-16.4c-1.4-10.5-2.4-18.3-2.8-21.4h3.1c4.8 0 9.6.1 14.5.1 3.7 8.3 11.1 24.8 14.6 31.7 2.3 4.1.1 9-4.8 10.9zm-62.1 137.6c-8.3 0-16.6-1.1-24.8-4-5.5-1.9-11.4-4.3-13.4-10.9-.2-.3-77.3-165.5-77.3-165.5H1165c0 .2 1.2 9.4 3 23.3 5.1 39.5 14.9 116.7 15.7 131 .2 3.8-.6 18.8-16.7 22.5-9.2 2.2-18.4 3.6-27.6 3.6zM921.6 224.2c0-4.4 1.2-7.7 4.4-10.9 15-14.6 29.8-29.4 44.5-44.3 3.4-3.4 7-4.9 11.9-4.9h.1c38.5.1 77.1.2 115.6.2 18.1 0 36.2 0 54.3-.1v223.2c-58.7-.4-117.4-.8-176.1-1-6.6 0-9.8-4.2-13.4-8.2-12.2-13.4-24.1-27.1-36.3-40.5-3.2-3.5-4.9-7.1-4.9-12 0-33.8 0-67.7-.1-101.5zm275.8 163.6c-2 0-4.1 0-6.1-.1-7-.1-14-.1-21-.2h-9V164.2h9c17.9-.2 35.9-.5 53.8-1.2 39.6-1.5 79.1-3.9 118.1-11.6 43-8.5 84.5-21.3 121.5-45.6 27.1-17.8 49.4-39.9 62.1-70 1-2.3 1.9-4.6 2.7-7 .7-2 1.2-4.1 1.8-6.2.2-.6.3-1.1.5-1.7.9-2.9 2.2-4.8 4-6V537c-1.4-1.3-2.1-3.4-2.5-6.8-.4-4.3-1.1-8.5-2-12.5-1.1-5-2.7-9.9-4.5-14.5-7.1-17.8-19.1-32.8-34.4-46.1-25.6-22.3-55.9-35.2-87.9-45.2-34.8-10.9-70.5-16.8-106.8-19.8-18.7-1.5-37.4-2.8-56.1-3.4-14.3-.6-28.7-.8-43.2-.9z" style="fill:#231f20"/></svg>